<svg width="43" height="40" viewBox="0 0 43 40" fill="none" xmlns="http://www.w3.org/2000/svg">
<g id="Layer_1" clip-path="url(#clip0_1984_9197)">
<path id="Vector (Stroke)" d="M21.4043 32.2734H21.1415V32.5362V34.8791V35.1418H21.4043C27.0422 35.1418 31.9079 31.8535 34.1857 27.0996L34.2994 26.8623L34.0619 26.7489L31.9439 25.7382L31.7072 25.6252L31.5938 25.8618C29.7755 29.6566 25.895 32.2734 21.4043 32.2734Z" fill="#204BFF" stroke="#204BFF" stroke-width="0.525548" stroke-miterlimit="10"/>
<path id="Vector" fill-rule="evenodd" clip-rule="evenodd" d="M27.3762 12.0594L42.2511 20.9896C42.2403 9.50848 32.9114 0.204346 21.4044 0.204346C9.89734 0.204346 0.557617 9.51926 0.557617 21.0093C0.557617 29.2957 5.41153 36.45 12.4365 39.7957V21.0754L27.3762 12.059V12.0594Z" fill="#204BFF"/>
</g>
<defs>
<clipPath id="clip0_1984_9197">
<rect width="41.6935" height="39.5913" fill="white" transform="translate(0.557617 0.204346)"/>
</clipPath>
</defs>
</svg>
